<svg xmlns="http://www.w3.org/2000/svg" width="32" height="32" viewBox="0 0 32 32" fill="none">
  <defs>
    <linearGradient id="brand-grad" x1="0%" y1="0%" x2="100%" y2="100%">
      <stop offset="0%" stop-color="#0ea5e9" />
      <stop offset="100%" stop-color="#6366f1" />
    </linearGradient>
    <linearGradient id="shield-grad" x1="0%" y1="0%" x2="0%" y2="100%">
      <stop offset="0%" stop-color="#0ea5e9" stop-opacity="0.15" />
      <stop offset="100%" stop-color="#6366f1" stop-opacity="0.05" />
    </linearGradient>
    <filter id="glow" x="-20%" y="-20%" width="140%" height="140%">
      <feDropShadow dx="0" dy="2" stdDeviation="3" flood-color="#0ea5e9" flood-opacity="0.3" />
    </filter>
  </defs>
  <!-- Outer Shield Backing with Gradient stroke -->
  <path d="M16 29s11-5.5 11-13.75V6.875L16 2.75 5 6.875v8.375C5 23.5 16 29 16 29z" fill="url(#shield-grad)" stroke="url(#brand-grad)" stroke-width="2" stroke-linecap="round" stroke-linejoin="round" filter="url(#glow)" />
  <!-- Stylized Tooth & Implant Screw Integration -->
  <!-- Top crown part of tooth -->
  <path d="M10.5 12c.5-1.5 1.8-3 3.5-3s2 .75 2 1.5.3-1.5 2-1.5 3 1.5 3.5 3c.6 2.25.6 5.25 0 6.75C21 20 18.5 21 16 21s-5-1-5.5-2.25c-.6-1.5-.6-4.5 0-6.75z" fill="#ffffff" fill-opacity="0.9" />
  <!-- Surgical Implant screw lines inside tooth base -->
  <path d="M13 14h6" stroke="url(#brand-grad)" stroke-width="1.5" stroke-linecap="round" />
  <path d="M12.5 16.5h7" stroke="url(#brand-grad)" stroke-width="1.5" stroke-linecap="round" />
  <path d="M13.5 19h5" stroke="url(#brand-grad)" stroke-width="1.5" stroke-linecap="round" />
</svg>